<svg class="w-64 h-64" fill="none" version="1.1" viewBox="0 0 16 20.004" xmlns="http://www.w3.org/2000/svg">
	<path d="m1.5028 2.627-0.0028 2.123v10.504c0 1.7949 1.4551 3.25 3.25 3.25l8.6163 3e-4c-0.309 0.8737-1.1423 1.4997-2.1219 1.4997h-6.4944c-2.6234 0-4.75-2.1266-4.75-4.75v-10.504c0-0.98071 0.62745-1.8149 1.5028-2.123zm12.247-2.627c1.2426 0 2.25 1.0074 2.25 2.25v13c0 1.2426-1.0074 2.25-2.25 2.25h-9c-1.2426 0-2.25-1.0074-2.25-2.25v-13c0-1.2426 1.0074-2.25 2.25-2.25z" fill="currentColor"/>
</svg>
