<?xml version="1.0" encoding="UTF-8" standalone="no"?>
<svg
   class="w-64 h-64"
   fill="none"
   version="1.1"
   viewBox="0 0 20.004 20.004"
   id="svg1"
   sodipodi:docname="copy-link-text.svg"
   inkscape:version="1.3 (0e150ed6c4, 2023-07-21)"
   width="20.004"
   height="20.004"
   inkscape:export-filename="logo-16.png"
   inkscape:export-xdpi="76.779999"
   inkscape:export-ydpi="76.779999"
   xmlns:inkscape="http://www.inkscape.org/namespaces/inkscape"
   xmlns:sodipodi="http://sodipodi.sourceforge.net/DTD/sodipodi-0.dtd"
   xmlns="http://www.w3.org/2000/svg"
   xmlns:svg="http://www.w3.org/2000/svg">
  <defs
     id="defs1" />
  <sodipodi:namedview
     id="namedview1"
     pagecolor="#ffffff"
     bordercolor="#666666"
     borderopacity="1.0"
     inkscape:showpageshadow="2"
     inkscape:pageopacity="0.0"
     inkscape:pagecheckerboard="0"
     inkscape:deskcolor="#d1d1d1"
     inkscape:zoom="20.554299"
     inkscape:cx="10.727683"
     inkscape:cy="12.479141"
     inkscape:window-width="1920"
     inkscape:window-height="991"
     inkscape:window-x="-9"
     inkscape:window-y="-9"
     inkscape:window-maximized="1"
     inkscape:current-layer="svg1" />
  <g
     id="g4"
     inkscape:label="logo"
     transform="translate(2.0020999)">
    <g
       id="g1"
       inkscape:label="copy"
       style="fill:#4b53ff;fill-opacity:1">
      <path
         d="M 1.5028,2.627 1.5,4.75 v 10.504 c 0,1.7949 1.4551,3.25 3.25,3.25 l 8.6163,3e-4 C 13.0573,19.378 12.224,20.004 11.2444,20.004 H 4.75 C 2.1266,20.004 0,17.8774 0,15.254 V 4.75 C 0,3.76929 0.62745,2.9351 1.5028,2.627 Z M 13.7498,0 c 1.2426,0 2.25,1.0074 2.25,2.25 v 13 c 0,1.2426 -1.0074,2.25 -2.25,2.25 h -9 c -1.2426,0 -2.25,-1.0074 -2.25,-2.25 v -13 C 2.4998,1.0074 3.5072,0 4.7498,0 Z"
         fill="currentColor"
         id="path1"
         style="fill:#4b53ff;fill-opacity:1" />
    </g>
    <g
       transform="matrix(0.1369023,0,0,0.1369023,3.495595,13.103006)"
       id="g2"
       inkscape:label="link"
       style="display:inline;fill:none;fill-opacity:1;stroke:#ffffff;stroke-width:1.9953;stroke-dasharray:none;stroke-opacity:1">
      <path
         d="m 10,13 a 5,5 0 0 0 7.54,0.54 l 3,-3 A 5,5 0 0 0 13.47,3.47 l -1.72,1.71"
         id="path1-7"
         style="fill:none;fill-opacity:1;stroke:#ffffff;stroke-width:1.9953;stroke-dasharray:none;stroke-opacity:1" />
      <path
         d="M 14,11 A 5,5 0 0 0 6.46,10.46 l -3,3 a 5,5 0 0 0 7.07,7.07 l 1.71,-1.71"
         id="path2"
         style="fill:none;fill-opacity:1;stroke:#ffffff;stroke-width:1.9953;stroke-dasharray:none;stroke-opacity:1" />
    </g>
    <g
       id="g3"
       inkscape:label="text"
       style="fill:#fef900;fill-opacity:1"
       transform="matrix(0.05663,0,0,0.05663,9.1221687,8.0555416)">
      <path
         d="m -97,-50 a 12,12 0 0 1 12,-12 H 91 a 12,12 0 0 1 0,24 H -85 A 12,12 0 0 1 -97,-50 Z M -85,2 H 43 a 12,12 0 0 0 0,-24 H -85 a 12,12 0 0 0 0,24 z M 91,18 H -85 a 12,12 0 0 0 0,24 H 91 A 12,12 0 0 0 91,18 Z M 43,58 H -85 a 12,12 0 0 0 0,24 H 43 a 12,12 0 0 0 0,-24 z"
         id="path1-6"
         style="fill:#fef900;fill-opacity:1" />
    </g>
  </g>
</svg>
